# xmcd
#
# Track frame offsets:
#	150
#	12900
#	29045
#	43020
#	55575
#	69035
#	84612
#	96860
#	106592
#	122920
#	136840
#	147240
#	158600
#	172990
#	188705
#	200980
#	211427
#	222510
#	237817
#	251735
#	262915
#	275977
#	291437
#	305112
#
# Disc length: 4303 seconds
#
# Revision: 0
# Processed by: cddbd v1.4PL0 Copyright (c) Steve Scherf et al.
# Submitted via: EasyCDDAExtractor 5.0.4.1
#
DISCID=6a10cd18
DTITLE=Antonio Bibriesca - 24 Exitos Rancheros
DYEAR=1900
DGENRE=rancheras
TTITLE0=Janitzio
TTITLE1=La pajarera
TTITLE2=Donde estas corazon
TTITLE3=Tu solo tu 
TTITLE4=Dos arbolitos
TTITLE5=Cancion mixteca
TTITLE6=Entre copa y copa
TTITLE7=Alla en el rancho grande
TTITLE8=Popurri mosaico de despedidas
TTITLE9=Rayando el sol
TTITLE10=Que te a dado esa mujer
TTITLE11=Albur de amor
TTITLE12=La barca de oro
TTITLE13=Las golondrinas
TTITLE14=El abandonado
TTITLE15=A la orilla de un palmar
TTITLE16=Las chiapanecas
TTITLE17=Adios mariquita linda
TTITLE18=Noche de ronda
TTITLE19=Por un amor
TTITLE20=Hace un año
TTITLE21=Para olvidarte a ti
TTITLE22=Jurame
TTITLE23=Dejame llorar
EXTD=
EXTT0=
EXTT1=
EXTT2=
EXTT3=
EXTT4=
EXTT5=
EXTT6=
EXTT7=
EXTT8=
EXTT9=
EXTT10=
EXTT11=
EXTT12=
EXTT13=
EXTT14=
EXTT15=
EXTT16=
EXTT17=
EXTT18=
EXTT19=
EXTT20=
EXTT21=
EXTT22=
EXTT23=
PLAYORDER=
